HIERARCHY
ROOT ui
{
	 OFFSET 0 0 0
	 CHANNELS 3 XPosition YPosition Z Position
	 EndSite
	 {
	 OFFSET 0 -1 0
	 }
}
ROOT li
{
	 OFFSET 0 0 0
	 CHANNELS 3 XPosition YPosition Z Position
	 EndSite
	 {
	 OFFSET 0 -1 0
	 }
}
ROOT ul
{
	 OFFSET 0 0 0
	 CHANNELS 3 XPosition YPosition Z Position
	 EndSite
	 {
	 OFFSET 0 -1 0
	 }
}
ROOT ll
{
	 OFFSET 0 0 0
	 CHANNELS 3 XPosition YPosition Z Position
	 EndSite
	 {
	 OFFSET 0 -1 0
	 }
}
ROOT tt
{
	 OFFSET 0 0 0
	 CHANNELS 3 XPosition YPosition Z Position
	 EndSite
	 {
	 OFFSET 0 -1 0
	 }
}
ROOT tb
{
	 OFFSET 0 0 0
	 CHANNELS 3 XPosition YPosition Z Position
	 EndSite
	 {
	 OFFSET 0 -1 0
	 }
}
ROOT td
{
	 OFFSET 0 0 0
	 CHANNELS 3 XPosition YPosition Z Position
	 EndSite
	 {
	 OFFSET 0 -1 0
	 }
}
ROOT v
{
	 OFFSET 0 0 0
	 CHANNELS 3 XPosition YPosition Z Position
	 EndSite
	 {
	 OFFSET 0 -1 0
	 }
}
ROOT bn
{
	 OFFSET 0 0 0
	 CHANNELS 3 XPosition YPosition Z Position
	 EndSite
	 {
	 OFFSET 0 -1 0
	 }
}
MOTION
Frames: 21
Frame Time: 0.002
-0.012079375267028809	6.360309720039368E-4	0		0.451768310546875	-2.482996337890625	0		-1.1166304931640625	-0.05061531066894531	0		-0.6614710083007812	-2.50216162109375	0		1.5676102294921874	-1.271800048828125	0		3.002548828125	-0.25771893310546873	0		4.663609375	0.2541374816894531	0		5.5697783203125	0.04592888641357422	0		-0.433155029296875	5.85101171875	0		
-0.007850896835327149	5.63269019126892E-4	0		0.5070401916503906	-2.491539794921875	0		-1.0344903564453125	-0.06049781799316406	0		-0.624168212890625	-2.5075859375	0		1.57190185546875	-1.27179443359375	0		3.027711669921875	-0.2658450317382812	0		4.67869921875	0.24119091796875	0		5.57860546875	0.07035779571533203	0		-0.46227349853515626	5.84523779296875	0		
-0.08079187774658203	0.0022385780811309815	0		0.4722182312011719	-2.489207763671875	0		-1.095448486328125	-0.06098386764526367	0		-0.6430383911132812	-2.51045849609375	0		1.5780333251953125	-1.268810302734375	0		3.015982177734375	-0.24362330627441406	0		4.6767919921875	0.24739059448242187	0		5.58439892578125	0.08270761871337891	0		-0.4443926086425781	5.85501513671875	0		
1.6381999477744103E-5	4.3640699982643125E-4	0		0.5041263427734375	-2.490517822265625	0		-1.09162451171875	-0.06108662796020508	0		-0.6350803833007812	-2.506582275390625	0		1.5969326171875	-1.265952392578125	0		3.04153369140625	-0.2727748718261719	0		4.68654638671875	0.24145661926269532	0		5.58290625	0.09691449737548828	0		-0.4067444152832031	5.860611328125	0		
-0.07036753845214844	0.006091550827026367	0		0.47189126586914065	-2.478209716796875	0		-1.0880576171875	-0.06117582321166992	0		-0.6104131469726563	-2.50485693359375	0		1.6005399169921875	-1.2659512939453126	0		3.0563369140625	-0.24883164978027345	0		4.6860361328125	0.2346000061035156	0		5.59548681640625	0.10901953125	0		-0.4174808959960937	5.8496796875	0		
0.006866686820983887	3.387790024280548E-4	0		0.5340618896484375	-2.497803466796875	0		-1.0216875	-0.05285268020629883	0		-0.60908642578125	-2.50789990234375	0		1.596927734375	-1.258885498046875	0		3.04840087890625	-0.2726856079101562	0		4.68931494140625	0.23468545532226562	0		5.58357568359375	0.11126637268066407	0		-0.4143585205078125	5.84962255859375	0		
-0.06712857055664062	0.0020332109928131105	0		0.5012152099609375	-2.486488037109375	0		-1.0877294921875	-0.05625690460205078	0		-0.6100770874023438	-2.51191357421875	0		1.5999473876953125	-1.2588885498046876	0		3.0353994140625	-0.2725043640136719	0		4.69723486328125	0.22770347595214843	0		5.5928251953125	0.10605515289306641	0		-0.4455422058105469	5.84489892578125	0		
0.012549948692321778	2.677769958972931E-4	0		0.5128711547851562	-2.494597900390625	0		-1.0790848388671874	-0.061364410400390625	0		-0.6303717651367188	-2.514738037109375	0		1.6116212158203125	-1.26298046875	0		3.061980224609375	-0.28471484375	0		4.6979130859375	0.2267667694091797	0		5.6076591796875	0.12488758850097656	0		-0.41178652954101563	5.8615634765625	0		
-0.04011290740966797	-0.005238626956939697	0		0.5043000793457031	-2.4935166015625	0		-1.0645887451171876	-0.0505193099975586	0		-0.5899638061523438	-2.516134033203125	0		1.62212109375	-1.25306787109375	0		3.06662158203125	-0.25873016357421874	0		4.71723486328125	0.21962852478027345	0		5.611560546875	0.13873252868652344	0		-0.4104496154785156	5.86253955078125	0		
0.017038705825805665	2.1350300312042236E-4	0		0.5214396362304687	-2.490681884765625	0		-1.0624912109375	-0.05055134963989258	0		-0.6357643432617187	-2.50670849609375	0		1.6203302001953126	-1.2420467529296875	0		3.04150341796875	-0.28148086547851564	0		4.7003505859375	0.221810546875	0		5.60663818359375	0.1388916473388672	0		-0.39040667724609374	5.8603408203125	0		
-0.05813628768920898	0.0019199049472808838	0		0.4833229064941406	-2.483325927734375	0		-1.0687451171875	-0.05750015640258789	0		-0.605035888671875	-2.516007568359375	0		1.61910595703125	-1.246039794921875	0		3.072418701171875	-0.2707763366699219	0		4.70910546875	0.21572645568847656	0		5.614349609375	0.138714599609375	0		-0.3876207275390625	5.85830712890625	0		
0.020391132354736326	1.6753999888896942E-4	0		0.5197212524414062	-2.497680908203125	0		-1.0672049560546875	-0.05751910400390625	0		-0.6295780029296875	-2.523781005859375	0		1.6167469482421875	-1.2350296630859374	0		3.063892333984375	-0.27771286010742186	0		4.70457080078125	0.20774699401855468	0		5.60479736328125	0.15100233459472656	0		-0.4201082458496094	5.85360888671875	0		
-0.05530923843383789	0.001876667022705078	0		0.49603909301757815	-2.49246923828125	0		-1.0578526611328125	-0.0506094856262207	0		-0.6283089599609375	-2.523798095703125	0		1.6330433349609375	-1.2332049560546876	0		3.070309814453125	-0.2638038940429687	0		4.7158583984375	0.20759768676757812	0		5.61152099609375	0.17671597290039062	0		-0.43873239135742187	5.85877978515625	0		
0.022733346939086914	1.2363799661397934E-4	0		0.5011161804199219	-2.487534423828125	0		-1.056797607421875	-0.05062050247192383	0		-0.6252605590820313	-2.521832763671875	0		1.6361240234375	-1.229262939453125	0		3.05014501953125	-0.2866570129394531	0		4.70691650390625	0.20762196350097656	0		5.618080078125	0.20239656066894532	0		-0.36851483154296877	5.8691064453125	0		
-0.05340240097045899	0.001832340955734253	0		0.5258863525390625	-2.492792724609375	0		-1.055947021484375	-0.05063037109375	0		-0.604424072265625	-2.52003857421875	0		1.6300262451171874	-1.22224169921875	0		3.10211376953125	-0.274206298828125	0		4.71863671875	0.19343292236328125	0		5.61868603515625	0.20223097229003906	0		-0.36758706665039065	5.86908740234375	0		
0.02426234245300293	7.246600091457367E-5	0		0.5155841064453125	-2.48672314453125	0		-1.05527001953125	-0.05064130401611328	0		-0.6078223266601562	-2.52401806640625	0		1.62475244140625	-1.215236328125	0		3.045742431640625	-0.27873654174804685	0		4.70539453125	0.20146786499023436	0		5.62627978515625	0.19668544006347657	0		-0.39700994873046874	5.84935302734375	0		
0.024799936294555663	4.01960015296936E-5	0		0.5400315551757813	-2.491992431640625	0		-1.0668377685546875	-0.061540554046630856	0		-0.6103743286132812	-2.529010986328125	0		1.6252698974609374	-1.215295166015625	0		3.077264404296875	-0.280114990234375	0		4.7098681640625	0.19431988525390625	0		5.63377294921875	0.19111602783203124	0		-0.4493822021484375	5.848833984375	0		
0.04009466171264649	-0.014141591072082519	0		0.5093324890136719	-2.500743408203125	0		-1.0543048095703125	-0.05067563629150391	0		-0.5980473022460937	-2.5351533203125	0		1.632773193359375	-1.2054295654296876	0		3.0665361328125	-0.2961015625	0		4.705224609375	0.18624691772460938	0		5.63696484375	0.19946435546875	0		-0.3987282409667969	5.86132421875	0		
0.03264288711547852	0.006887293815612793	0		0.5317588500976562	-2.488010009765625	0		-1.0370267333984375	-0.05786574554443359	0		-0.5957260131835938	-2.5332080078125	0		1.6450982666015626	-1.2056195068359374	0		3.080193603515625	-0.2633277587890625	0		4.6997763671875	0.20717445373535157	0		5.6329853515625	0.21315414428710938	0		-0.36423175048828127	5.86595947265625	0		
0.03292501831054687	0.006832924842834473	0		0.5040005493164063	-2.487803955078125	0		-1.053677734375	-0.05073936080932617	0		-0.6084281616210937	-2.52712744140625	0		1.63639892578125	-1.2016146240234375	0		3.062222412109375	-0.28925912475585935	0		4.70786962890625	0.18696614074707033	0		5.63740966796875	0.19896147155761718	0		-0.37992767333984373	5.8580654296875	0		
0.04094890213012695	-0.014305158615112305	0		0.543177978515625	-2.489248046875	0		-1.053452392578125	-0.050785255432128903	0		-0.603374755859375	-2.541227294921875	0		1.6296746826171875	-1.1946337890625	0		3.0743955078125	-0.2944817199707031	0		4.71404052734375	0.1807766876220703	0		5.6291337890625	0.23004925537109375	0		-0.379614013671875	5.858009765625	0		
